<?xml version="1.0" encoding="UTF-8" standalone="no"?><svg width="100%" height="100%" viewBox="0 0 102 126" version="1.1" xmlns="http://www.w3.org/2000/svg"><path d="M34.601,86.048c0.107,-0.853 0.279,-1.7 0.279,-2.559c0.003,-1.113 -0.275,-2.206 -0.397,-3.313c-0.191,-1.722 -0.003,-3.475 -0.247,-5.193c-0.35,-2.485 -1.631,-4.825 -3.535,-6.46c-0.325,-0.278 -0.715,-0.553 -1.137,-0.5c-0.456,0.06 -0.775,0.466 -1.006,0.86c-3.032,5.09 -0.053,11.837 -1.944,17.453c-1.128,-1.419 -1.981,-3.057 -2.494,-4.797c-0.365,-1.253 -0.556,-2.55 -0.912,-3.806c-0.719,-2.563 -2.091,-4.885 -3.45,-7.175c-1.553,-2.619 -3.266,-5.385 -6.025,-6.679c-0.491,3.266 0.156,6.622 1.331,9.707c1.178,3.084 2.872,5.943 4.556,8.784c1.488,2.506 2.975,5.016 4.466,7.525c0.172,0.291 0.35,0.653 0.19,0.953c-0.106,0.203 -0.34,0.306 -0.565,0.347c-1.378,0.241 -2.303,-1.316 -3.453,-2.112c-0.897,-0.625 -2.022,-0.797 -3.044,-1.185c-3.131,-1.184 -5.072,-4.25 -6.866,-7.075c-0.59,-0.925 -1.19,-1.853 -1.959,-2.634c-0.8,-0.816 -1.769,-1.46 -2.806,-1.941c-1.538,-0.715 -3.257,-1.084 -4.944,-0.903c-0.197,0.019 -0.413,0.059 -0.538,0.213c-0.171,0.206 -0.093,0.515 0.004,0.765c0.771,1.95 2.328,3.463 3.843,4.913c2.366,2.262 4.744,4.537 7.422,6.425c2.966,2.087 6.256,3.675 9.288,5.672c0.44,0.29 0.884,0.593 1.393,0.74c1.385,0.397 3.072,-0.419 4.213,0.46c0.987,0.762 0.903,2.337 1.75,3.25c0.312,0.337 0.731,0.559 1.053,0.89c0.531,0.55 0.728,1.331 1.066,2.019c1.322,2.697 4.625,3.728 6.668,5.928c0.319,0.344 0.613,0.731 0.722,1.188c0.138,0.575 -0.043,1.171 -0.081,1.762c-0.112,1.656 0.866,3.175 1.847,4.516c1.081,1.478 2.216,2.918 3.403,4.312c0.494,-2.053 0.522,-4.281 -0.328,-6.215c-1.013,-2.307 -3.166,-3.997 -4.019,-6.369c-0.531,-1.481 -0.522,-3.091 -0.994,-4.588c-0.253,-0.793 -0.778,-1.3 -1.121,-2.009c-0.325,-0.669 -0.404,-1.591 -0.575,-2.316c-0.838,-3.543 -1.516,-7.206 -1.054,-10.853" style="fill:#dfeaef;fill-rule:nonzero;"/><path d="M83.217,46.629c-0.059,-0.09 -0.116,-0.184 -0.166,-0.281c-0.181,-0.35 -0.14,-0.644 -0.228,-0.997c-0.143,-0.556 -0.718,-1.134 -1.043,-1.612c-0.288,-0.241 -0.585,-0.466 -0.838,-0.747c-0.159,-0.172 -0.3,-0.363 -0.419,-0.563c-0.097,-0.156 -0.181,-0.325 -0.281,-0.481c-0.319,-0.515 -0.691,-0.669 -1.178,-0.978c-0.422,-0.272 -0.803,-0.603 -1.128,-0.984c-0.522,-0.607 -1.5,-1.15 -2.16,-1.607c-1.915,-1.325 -3.181,-3.278 -5.093,-4.606c-0.366,-0.25 -0.728,-0.503 -1.047,-0.809c-0.503,-0.481 -0.878,-1.078 -1.353,-1.588c-0.788,-0.843 -1.857,-1.447 -2.438,-2.443c-0.325,-0.557 -0.484,-1.21 -0.897,-1.704c-0.365,-0.434 -0.887,-0.696 -1.35,-1.025c-2.181,-1.546 -2.95,-4.484 -4.968,-6.24c-0.663,-0.575 -1.51,-1.11 -1.635,-1.978c1.581,-0.453 3.278,-0.191 4.888,0.168c0.912,0.207 1.853,0.46 2.562,1.066c0.56,0.478 0.928,1.138 1.322,1.763c0.544,0.862 1.163,1.681 1.797,2.481c1.912,2.409 4.012,4.678 6.334,6.697c0.766,0.662 1.553,1.3 2.253,2.034c0.666,0.703 1.247,1.494 1.991,2.119c1.356,1.147 3.141,1.79 4.375,3.059c0.394,0.403 0.903,0.913 1.422,0.694c0.706,-0.297 0.344,-1.353 -0.084,-1.984c-1.46,-2.163 -2.5,-4.607 -3.041,-7.157c-0.044,-0.203 -0.078,-0.437 0.044,-0.603c0.062,-0.087 0.159,-0.144 0.256,-0.19c1.691,-0.819 3.728,0.6 4.45,2.331c0.725,1.731 0.606,3.684 0.903,5.537c0.144,0.897 0.853,2.019 1.669,1.625c0.553,-0.265 0.597,-1.022 0.559,-1.631c-0.256,-4.294 -0.512,-8.587 -0.769,-12.881c-0.112,-1.835 -0.221,-3.688 0.044,-5.51c0.388,-2.662 1.563,-5.171 1.835,-7.85c0.831,-0.09 1.262,0.954 1.39,1.775c0.356,2.297 0.5,4.619 0.641,6.938c0.103,1.675 0.206,3.369 -0.053,5.028c-0.122,0.763 -0.319,1.516 -0.344,2.288c-0.041,1.121 0.281,2.225 0.466,3.334c0.503,3.034 -0.029,6.103 -0.366,9.125c-0.172,1.544 -0.191,3.066 -0.253,4.612c-0.063,1.425 0.487,2.319 0.922,3.663c0.378,1.175 0.287,2.441 0.39,3.672c0.153,1.819 0.738,3.581 0.86,5.4c0.125,1.822 -0.328,3.844 -1.797,4.928c-0.313,0.231 -0.71,0.419 -1.085,0.316c-0.196,-0.054 -0.362,-0.182 -0.521,-0.31c-0.947,-0.787 -1.713,-1.775 -2.382,-2.809c-1.075,-1.672 -1.915,-3.494 -2.49,-5.397c-0.472,-1.566 -0.616,-3.378 -1.41,-4.831c-0.162,-0.3 -0.372,-0.569 -0.556,-0.857" style="fill:#dfeaef;fill-rule:nonzero;"/><path d="M97.322,85.769c-1.128,-0.741 -2.219,-1.619 -2.644,-2.878c-0.4,-1.185 -0.443,-2.472 -0.678,-3.688c-0.281,-1.45 -0.737,-2.862 -0.959,-4.328c-0.135,-0.869 -0.763,-1.391 -1.494,-1.809c-1.844,-1.057 -2.95,-3.8 -2.216,-5.772c1.175,-3.156 0.744,-5.938 -1.221,-8.731c-1.55,-2.207 -1.613,-4.997 -1.335,-7.579c0.256,-2.371 3.319,-3.381 5.297,-2.003c0.347,0.241 0.509,0.563 0.553,0.953c0.169,1.569 0.788,3.075 0.91,4.613c0.165,2.097 1.259,3.641 1.853,5.581c0.631,2.075 0.584,4.278 0.712,6.419c0.025,0.425 0.06,0.859 0.235,1.247c0.196,0.431 0.55,0.765 0.868,1.112c1.388,1.522 2.21,3.547 2.275,5.603c0.066,2.032 -0.272,4.175 0.513,6.122c0.228,0.569 0.603,1.066 0.887,1.61c0.303,0.578 0.507,1.206 0.707,1.831c0.056,0.178 0.112,0.359 0.103,0.544c-0.013,0.228 -0.128,0.44 -0.266,0.622c-0.434,0.571 -1.106,0.925 -1.797,1.121c-0.347,0.097 -0.715,0.163 -1.069,0.082c-0.271,-0.066 -0.515,-0.216 -0.756,-0.366c-0.159,-0.1 -0.319,-0.203 -0.478,-0.306" style="fill:#d4dce1;fill-rule:nonzero;"/><path d="M74.846,20.976c-0.316,-0.41 -0.762,-0.55 -1.244,-0.622c-1.962,-0.294 -2.731,-1.488 -1.74,-3.131c0.737,-1.225 0.522,-1.894 -0.185,-3.1c-1.375,-2.354 -3.065,-4.619 -3.556,-7.429c-0.059,-0.353 -0.25,-0.756 -0.509,-0.996c-1.057,-0.991 -1.247,-1.969 -0.178,-3.072c0.281,-0.291 0.24,-0.666 0.156,-1.072c-0.238,-1.141 0.275,-1.644 1.45,-1.541c1.556,0.141 2.537,1.044 3.084,2.422c0.463,1.172 0.885,2.247 2.25,2.734c0.735,0.26 0.997,1.166 1.047,1.932c0.188,2.865 2.278,4.731 3.65,6.956c0.531,0.862 1.194,1.55 1.041,2.669c-0.088,0.643 0.272,1.187 0.725,1.643c0.55,0.113 0.825,0.541 0.872,1.013c0.359,3.512 2.187,6.653 2.531,10.166c0.065,0.675 0.059,1.328 -0.1,1.981c-0.169,0.7 -0.566,1.206 -1.3,1.356c-0.7,0.144 -1.238,-0.191 -1.553,-0.762c-0.785,-1.422 -1.7,-2.71 -2.928,-3.804c-0.785,-0.7 -1.157,-1.737 -1.394,-2.753c-0.391,-1.684 -1.556,-2.997 -2.119,-4.59" style="fill:#d4dce1;fill-rule:nonzero;"/><path d="M37.372,116.29c-0.018,-0.3 0.057,-0.528 0.075,-0.837c0.025,-0.397 -0.147,-0.832 -0.237,-1.213c-0.222,-0.928 -0.422,-1.847 -0.425,-2.816c-0.003,-0.937 -0.378,-1.803 -1.122,-2.387c-1.463,-1.153 -2.528,-2.525 -2.825,-4.413c-0.028,-0.175 -0.141,-0.39 -0.281,-0.484c-1.569,-1.025 -1.791,-2.509 -1.647,-4.237c0.128,-1.529 -0.372,-3.01 -0.688,-4.5c-0.343,-1.61 0.397,-2.213 1.966,-1.863c1.603,0.359 2.622,1.075 3.141,2.778c0.487,1.585 1.203,3.053 1.168,4.797c-0.025,1.178 0.378,2.35 1.607,2.966c0.496,0.247 0.8,0.693 1.015,1.168c0.881,1.935 2.275,3.632 2.666,5.8c0.081,0.447 0.375,0.869 0.615,1.279c1.06,1.793 1.116,3.959 1.485,5.975c0.065,0.375 0.137,0.75 0.294,1.096c0.206,0.457 0.543,0.838 0.893,1.194c0.588,0.606 1.216,1.169 1.807,1.772c0.59,0.603 1.168,1.297 1.268,2.134c-0.375,0.157 -0.756,0.297 -1.14,0.422c-0.303,0.1 -0.616,0.194 -0.932,0.178c-0.468,-0.025 -0.884,-0.278 -1.312,-0.468c-0.531,-0.241 -1.103,-0.391 -1.625,-0.653c-1,-0.5 -1.788,-1.41 -2.138,-2.469c-0.112,-0.341 -0.19,-0.713 -0.437,-0.975c-0.309,-0.325 -0.813,-0.4 -1.147,-0.706c-0.175,-0.16 -0.294,-0.379 -0.437,-0.569c-0.163,-0.219 -0.363,-0.41 -0.544,-0.616c-0.541,-0.615 -0.903,-1.387 -1.044,-2.197c-0.009,-0.053 -0.016,-0.106 -0.019,-0.156" style="fill:#d4dce1;fill-rule:nonzero;"/><path d="M19.685,90.601c0.297,1.191 -0.206,1.709 -1.46,1.587c-1.059,-0.1 -2.087,-0.137 -2.587,-1.346c-0.231,-0.557 -0.844,-0.572 -1.369,-0.582c-2.044,-0.04 -3.425,-1.018 -4.125,-2.925c-0.297,-0.809 -0.884,-1.075 -1.653,-1.081c-0.962,-0.006 -1.462,-0.516 -1.997,-1.306c-0.978,-1.444 -2.294,-2.625 -3.715,-3.656c-1.794,-1.307 -2.013,-2.71 -0.616,-3.997c0.541,-0.497 1.066,-0.597 1.634,-0.085c0.528,0.478 1.197,0.875 1.547,1.46c1.303,2.19 3.3,3.462 5.494,4.575c1.669,0.85 2.575,2.437 3.409,4.04c0.572,1.103 0.885,2.547 2.747,1.61c0.656,-0.332 2.513,0.993 2.691,1.706" style="fill:#d4dce1;fill-rule:nonzero;"/><path d="M89.241,26.383c-0.316,-1.959 -0.147,-3.65 -0.435,-5.162c-0.453,-2.35 0.316,-4.634 -0.159,-6.925c-0.084,-0.403 -0.084,-0.884 0.056,-1.263c0.4,-1.087 0.35,-2.084 -0.062,-3.184c-0.563,-1.494 0.184,-2.497 2.162,-3.216c1.066,-0.39 1.744,0.01 2.382,1.4c0.059,0.132 0.093,0.272 0.15,0.404c0.843,1.925 0.856,1.94 -0.841,3.225c-0.634,0.478 -0.95,1.031 -0.797,1.837c0.178,0.931 0.216,1.884 0.575,2.791c0.428,1.084 0.513,2.24 0.284,3.378c-0.3,1.5 -0.331,2.994 -1.003,4.506c-0.506,1.138 -0.84,2.859 -0.172,4.281c0.31,0.66 0.232,0.966 -0.431,1.141c-0.6,0.159 -1.184,0.206 -1.325,-0.6c-0.169,-0.988 -0.294,-1.981 -0.384,-2.613" style="fill:#d4dce1;fill-rule:nonzero;"/><path d="M37.371,88.705c-0.403,0.038 -0.64,-0.187 -0.75,-0.525c-0.1,-0.316 0.057,-0.566 0.369,-0.662c0.378,-0.119 0.669,0.031 0.788,0.403c0.122,0.375 -0.047,0.64 -0.407,0.784" style="fill:#d4dce1;fill-rule:nonzero;"/><path d="M92.59,67.841c-0.15,-1.044 -0.306,-1.794 -0.356,-2.553c-0.06,-0.906 0.128,-1.766 1.156,-2.038c1.025,-0.272 1.787,0.341 1.99,1.2c0.541,2.285 1.81,4.31 2.26,6.603c0.178,0.91 0.481,1.725 0.953,2.51c0.606,1.006 0.819,2.137 0.109,3.103c-0.69,0.937 -1.834,0.869 -2.903,0.734c-1.031,-0.131 -1.562,-0.706 -1.4,-1.753c0.297,-1.906 0.191,-3.644 -1.231,-5.197c-0.672,-0.734 -0.413,-1.922 -0.578,-2.609" style="fill:#bcc3cd;fill-rule:nonzero;"/><path d="M78.035,34.978c0.163,0.497 0.378,0.984 0.475,1.494c0.15,0.778 0.16,1.612 -0.734,1.94c-0.853,0.313 -1.813,0.544 -2.388,-0.528c-0.531,-0.991 -1.384,-1.369 -2.44,-1.484c-1.057,-0.116 -1.653,-0.682 -1.95,-1.769c-0.472,-1.728 -1.263,-3.228 -3.2,-3.859c-1.71,-0.557 -2.722,-2.197 -4.253,-3.072c-0.21,-0.119 -0.438,-0.507 -0.394,-0.719c0.306,-1.544 -0.785,-2.703 -1.085,-4.081c-0.25,-1.135 -1.381,-1.485 -2.293,-1.982c-0.563,-0.306 -1.385,-0.446 -1.216,-1.346c0.156,-0.838 0.75,-1.275 1.603,-1.394c1.694,-0.235 3.341,-0.381 4.5,1.287c0.15,0.219 0.431,0.416 0.688,0.485c1.534,0.403 2.031,1.778 2.965,2.818c2.369,2.644 2.694,6.672 6.016,8.622c0.641,0.378 0.619,1.563 1.678,1.566c1.281,0.062 1.463,1.234 2.028,2.022" style="fill:#d4dce1;fill-rule:nonzero;"/><path d="M16.406,53.528c0.565,1.766 0.503,3.447 0.119,5.31c-0.357,1.719 -0.022,3.725 1.59,5.072c0.694,0.581 1.019,1.356 1.213,2.212c0.4,1.766 0.815,3.531 1.222,5.297c0.14,0.606 0.281,1.203 0.681,1.709c0.6,0.754 0.797,1.622 0.578,2.56c-0.197,0.834 0.2,1.597 0.228,2.4c0.025,0.647 -0.1,1.222 -0.978,0.784c-0.356,-0.181 -0.725,-0.237 -1.109,-0.147c-1.029,0.241 -1.454,-0.372 -1.804,-1.193c-0.662,-1.563 -1.64,-2.969 -2.453,-4.422c-1.09,-1.95 -2.578,-3.932 -2.54,-6.41c0.006,-0.422 0.031,-0.962 -0.2,-1.25c-1.163,-1.453 -1.113,-3.368 -2.041,-4.953c-0.916,-1.559 -1.072,-3.459 0.081,-5.14c0.51,-0.747 0.378,-1.382 0.169,-2.244c-0.522,-2.138 -1.766,-4.235 -0.631,-6.585c0.431,-0.89 0.797,-1.059 1.572,-0.471c0.468,0.353 0.84,0.753 1.118,1.271c0.582,1.091 1.179,2.144 2.138,3.004c0.903,0.806 0.656,2.14 1.047,3.196" style="fill:#d4dce1;fill-rule:nonzero;"/><path d="M28.966,88.849c-0.2,-0.771 -0.21,-1.481 0.325,-2.168c0.528,-0.678 0.369,-1.332 -0.288,-1.875c-0.475,-0.394 -0.953,-0.791 -1.403,-1.216c-1.234,-1.159 -1.569,-2.469 -0.94,-3.997c0.262,-0.637 0.218,-1.162 -0.047,-1.772c-0.613,-1.412 -1.135,-2.84 -0.275,-4.372c0.275,-0.49 0.093,-1.059 -0.182,-1.506c-0.575,-0.934 -0.396,-1.869 -0.281,-2.887c0.275,-2.478 0.363,-4.947 -1.656,-6.941c-0.559,-0.55 -0.853,-1.416 -0.656,-2.241c0.143,-0.618 0.184,-1.19 0.097,-1.821c-0.113,-0.835 0.415,-1.335 1.075,-0.788c0.94,0.778 2,0.822 3.062,0.963c2.238,0.296 3.475,1.521 4.125,3.703c0.5,1.678 1.881,3.131 0.875,5.078c-0.1,0.197 0.113,0.715 0.334,0.894c1.132,0.909 1.138,2.078 0.994,3.368c-0.231,2.05 0.256,4.147 -0.65,6.169c-0.456,1.019 0.125,2.156 0.385,3.216c0.284,1.175 0.684,2.556 0.053,3.487c-1.085,1.597 -0.172,3.185 -0.438,4.75c-0.156,0.941 0.178,1.922 -1.125,2.244c-1.459,0.359 -2.484,-0.059 -3.065,-1.344c-0.135,-0.3 -0.213,-0.628 -0.319,-0.944" style="fill:#d4dce1;fill-rule:nonzero;"/></svg>